<?xml version="1.0" encoding="UTF-8" standalone="no"?>
<svg
   xmlns:dc="http://purl.org/dc/elements/1.1/"
   xmlns:cc="http://creativecommons.org/ns#"
   xmlns:rdf="http://www.w3.org/1999/02/22-rdf-syntax-ns#"
   xmlns:svg="http://www.w3.org/2000/svg"
   xmlns="http://www.w3.org/2000/svg"
   xmlns:sodipodi="http://sodipodi.sourceforge.net/DTD/sodipodi-0.dtd"
   xmlns:inkscape="http://www.inkscape.org/namespaces/inkscape"
   width="28"
   height="28"
   viewBox="0 0 28 28"
   version="1.1"
   id="svg304"
   inkscape:version="1.0rc1 (09960d6, 2020-04-09)"
   sodipodi:docname="github.svg">
  <defs
     id="defs298" />
  <sodipodi:namedview
     scale-x="1"
     viewbox-width="28.8"
     units="px"
     id="base"
     pagecolor="#ffffff"
     bordercolor="#666666"
     borderopacity="1.0"
     inkscape:pageopacity="0.0"
     inkscape:pageshadow="2"
     inkscape:zoom="8"
     inkscape:cx="11.809521"
     inkscape:cy="13.546668"
     inkscape:document-units="px"
     inkscape:current-layer="layer1"
     inkscape:document-rotation="0"
     showgrid="false"
     fit-margin-top="0"
     fit-margin-left="0"
     fit-margin-right="0"
     fit-margin-bottom="0"
     inkscape:window-width="1920"
     inkscape:window-height="1035"
     inkscape:window-x="0"
     inkscape:window-y="23"
     inkscape:window-maximized="1" />
  <metadata
     id="metadata301">
    <rdf:RDF>
      <cc:Work
         rdf:about="">
        <dc:format>image/svg+xml</dc:format>
        <dc:type
           rdf:resource="http://purl.org/dc/dcmitype/StillImage" />
        <dc:title></dc:title>
      </cc:Work>
    </rdf:RDF>
  </metadata>
  <g
     inkscape:label="Layer 1"
     inkscape:groupmode="layer"
     id="layer1"
     transform="translate(-0.10339139)">
    <path
       d="m 14.102487,1.6571435 c -6.9874028,0 -12.6540668,5.665893 -12.6540668,12.6556085 0,5.590532 3.625779,10.334248 8.6546158,12.008454 0.633161,0.115749 0.863887,-0.275022 0.863887,-0.610639 0,-0.300658 -0.01101,-1.096196 -0.01761,-2.151997 -3.5200978,0.764465 -4.2628188,-1.696734 -4.2628188,-1.696734 -0.575682,-1.462116 -1.40539,-1.851341 -1.40539,-1.851341 -1.149032,-0.784662 0.08699,-0.769126 0.08699,-0.769126 1.270218,0.08934 1.93835,1.304405 1.93835,1.304405 1.128836,1.933692 2.9622958,1.375106 3.6832568,1.051141 0.114957,-0.817295 0.442054,-1.375104 0.803304,-1.691301 -2.8100328,-0.320079 -5.7645538,-1.405401 -5.7645538,-6.254777 0,-1.382093 0.49332,-2.51092 1.302856,-3.395803 -0.130592,-0.3200808 -0.564804,-1.6066185 0.124205,-3.3491915 0,0 1.062021,-0.34028 3.4797048,1.296637 1.009189,-0.280459 2.092176,-0.420301 3.168182,-0.425738 1.075234,0.0055 2.157447,0.14528 3.168179,0.425738 2.416146,-1.636917 3.476602,-1.296637 3.476602,-1.296637 0.690659,1.742573 0.256383,3.0291107 0.126628,3.3491915 0.811077,0.884883 1.30052,2.01371 1.30052,3.395803 0,4.861806 -2.95919,5.931591 -5.777768,6.244677 0.453726,0.390777 0.858471,1.163012 0.858471,2.343892 0,1.691299 -0.01542,3.0563 -0.01542,3.471161 0,0.338726 0.228414,0.732612 0.870141,0.609086 5.024957,-1.677316 8.647611,-6.417146 8.647611,-12.006901 3e-6,-6.9897155 -5.666661,-12.6556085 -12.656376,-12.6556085"
       style="fill:#1b1817;fill-opacity:1;fill-rule:evenodd;stroke:none;stroke-width:0.0776892"
       id="path53"
       inkscape:connector-curvature="0" />
  </g>
</svg>
