<?xml version="1.0" encoding="UTF-8" standalone="no"?>
<svg
   xmlns:dc="http://purl.org/dc/elements/1.1/"
   xmlns:cc="http://creativecommons.org/ns#"
   xmlns:rdf="http://www.w3.org/1999/02/22-rdf-syntax-ns#"
   xmlns:svg="http://www.w3.org/2000/svg"
   xmlns="http://www.w3.org/2000/svg"
   xmlns:sodipodi="http://sodipodi.sourceforge.net/DTD/sodipodi-0.dtd"
   xmlns:inkscape="http://www.inkscape.org/namespaces/inkscape"
   width="28"
   height="28"
   version="1.1"
   id="svg118"
   sodipodi:docname="logomark-dark.svg"
   inkscape:version="1.0rc1 (09960d6, 2020-04-09)">
  <metadata
     id="metadata124">
    <rdf:RDF>
      <cc:Work
         rdf:about="">
        <dc:format>image/svg+xml</dc:format>
        <dc:type
           rdf:resource="http://purl.org/dc/dcmitype/StillImage" />
        <dc:title></dc:title>
      </cc:Work>
    </rdf:RDF>
  </metadata>
  <defs
     id="defs122" />
  <sodipodi:namedview
     inkscape:document-rotation="0"
     pagecolor="#ffffff"
     bordercolor="#666666"
     borderopacity="1"
     objecttolerance="10"
     gridtolerance="10"
     guidetolerance="10"
     inkscape:pageopacity="0"
     inkscape:pageshadow="2"
     inkscape:window-width="1920"
     inkscape:window-height="1116"
     id="namedview120"
     showgrid="false"
     inkscape:zoom="6.8"
     inkscape:cx="39.852941"
     inkscape:cy="20.588235"
     inkscape:window-x="0"
     inkscape:window-y="23"
     inkscape:window-maximized="1"
     inkscape:current-layer="svg118" />
  <path
     inkscape:connector-curvature="0"
     fill="#FFF"
     d="m 20.285612,9.7167296 -0.01022,-0.0044 c -0.0058,-0.0022 -0.01168,-0.0044 -0.0168,-0.0095 a 0.08032729,0.08032729 0 0 1 -0.02045,-0.06791 l 0.564484,-3.4511297 2.647149,2.6478794 -2.753034,1.1713187 a 0.06061059,0.06061059 0 0 1 -0.0241,0.0044 h -0.01095 c -0.0037,-0.0022 -0.0073,-0.0051 -0.0146,-0.01241 a 1.2531057,1.2531057 0 0 0 -0.361472,-0.278225 z m 3.839644,-0.210311 2.830441,2.8304414 c 0.587851,0.58858 0.88214,0.88214 0.989486,1.222436 0.01607,0.05039 0.02921,0.100774 0.03943,0.152621 l -6.764288,-2.864763 a 0.53162058,0.53162058 0 0 0 -0.01095,-0.0044 c -0.02702,-0.01095 -0.05842,-0.02337 -0.05842,-0.05112 0,-0.02775 0.03213,-0.04089 0.05915,-0.05185 l 0.0088,-0.0037 z m 3.743983,5.1139274 c -0.146051,0.274573 -0.430847,0.55937 -0.912811,1.042064 l -3.191183,3.190454 -4.127362,-0.859502 -0.02191,-0.0044 c -0.03651,-0.0058 -0.07522,-0.01241 -0.07522,-0.04528 a 1.2458032,1.2458032 0 0 0 -0.478307,-0.871163 c -0.0168,-0.0168 -0.01241,-0.04309 -0.0073,-0.06718 0,-0.0037 0,-0.0073 0.0015,-0.01022 L 19.8329,12.22952 19.8358,12.21345 c 0.0044,-0.03651 0.01095,-0.07887 0.04382,-0.07887 a 1.2633291,1.2633291 0 0 0 0.847087,-0.485615 c 0.0066,-0.0073 0.01095,-0.01534 0.01972,-0.01972 0.02337,-0.01095 0.05112,0 0.07522,0.01022 l 7.046893,2.980872 z m -4.837894,4.966417 -5.247563,5.247563 0.898205,-5.520676 0.0015,-0.0073 c 7.31e-4,-0.0073 0.0022,-0.01461 0.0044,-0.02118 0.0073,-0.01753 0.02629,-0.02483 0.04454,-0.03213 l 0.0088,-0.0037 a 1.3509589,1.3509589 0 0 0 0.507523,-0.377539 c 0.01753,-0.02045 0.0387,-0.04016 0.06572,-0.04381 a 0.06572233,0.06572233 0 0 1 0.02118,0 l 3.695055,0.759458 z m -6.358271,6.35827 -0.591501,0.591501 -6.5393705,-9.45087 a 0.30962518,0.30962518 0 0 0 -0.0073,-0.01022 c -0.01022,-0.01387 -0.02118,-0.02775 -0.01899,-0.04381 7.3e-4,-0.01168 0.008,-0.02191 0.01607,-0.03067 l 0.0073,-0.0095 c 0.01972,-0.02921 0.03651,-0.05842 0.05477,-0.08982 l 0.01461,-0.02556 0.0022,-0.0022 c 0.01022,-0.01753 0.01972,-0.03432 0.03724,-0.04381 0.01534,-0.0073 0.03651,-0.0044 0.05331,-7.31e-4 l 7.2447905,1.494088 a 0.11976068,0.11976068 0 0 1 0.0555,0.0241 c 0.0095,0.0095 0.01168,0.01972 0.01388,0.0314 a 1.2830458,1.2830458 0 0 0 0.750695,0.858041 c 0.02045,0.01022 0.01168,0.03286 0.0022,0.05696 a 0.17379904,0.17379904 0 0 0 -0.01095,0.03286 c -0.09128,0.554988 -0.874107,5.32935 -1.084419,6.618238 z m -1.235579,1.234849 c -0.435957,0.431577 -0.693006,0.660145 -0.983644,0.752156 a 1.4604961,1.4604961 0 0 1 -0.88068,0 C 13.232877,27.823961 12.938587,27.530401 12.350737,26.941822 L 5.7836159,20.374701 7.4989686,17.714407 c 0.00803,-0.01314 0.016065,-0.02483 0.02921,-0.03432 0.018256,-0.01314 0.044545,-0.0073 0.066453,0 a 1.7774238,1.7774238 0 0 0 1.1961463,-0.06061 c 0.019717,-0.0073 0.039433,-0.01241 0.054769,0.0015 a 0.13874713,0.13874713 0 0 1 0.020447,0.02337 l 6.5715031,9.53631 z M 5.1504908,19.741576 3.6439891,18.235074 6.6190197,16.965903 a 0.06134084,0.06134084 0 0 1 0.024098,-0.0051 c 0.024828,0 0.039433,0.02483 0.052578,0.04747 a 2.1250218,2.1250218 0 0 0 0.094932,0.134366 l 0.00949,0.01168 c 0.00876,0.01241 0.00292,0.02483 -0.00584,0.03651 L 5.1512211,19.741576 Z M 2.9772726,17.568357 1.0713252,15.66241 C 0.7470951,15.33818 0.5119552,15.10304 0.3483796,14.900761 l 5.7952486,1.201989 a 0.61340837,0.61340837 0 0 0 0.021907,0.0037 c 0.035782,0.0058 0.075216,0.01241 0.075216,0.04601 0,0.03651 -0.043085,0.05331 -0.079597,0.06718 l -0.016796,0.0073 z M 0.0153865,13.920768 A 1.4604961,1.4604961 0 0 1 0.0811088,13.559296 C 0.1891855,13.219 0.4827453,12.92544 1.0713252,12.33686 L 3.5103537,9.8978316 a 1588.6729,1588.6729 0 0 0 3.3781275,4.8831694 c 0.019717,0.02629 0.041624,0.0555 0.018987,0.07741 -0.1066163,0.11757 -0.2132325,0.246094 -0.288448,0.385571 a 0.11683969,0.11683969 0 0 1 -0.036512,0.04528 c -0.00949,0.0058 -0.019717,0.0037 -0.030671,0.0015 h -0.00146 L 0.0153865,13.920038 Z m 4.147809,-4.6757784 3.279544,-3.2795439 c 0.3081647,0.1350959 1.4298257,0.6090269 2.433186,1.0325708 0.7594585,0.3213091 1.4517335,0.6134083 1.6693475,0.7083406 0.02191,0.00876 0.04162,0.017526 0.05112,0.039433 0.0058,0.013144 0.0029,0.02994 0,0.043815 a 1.4626869,1.4626869 0 0 0 0.38192,1.3348934 c 0.02191,0.021907 0,0.053308 -0.01899,0.080327 l -0.01022,0.01534 -3.3299309,5.1577415 c -0.00876,0.01461 -0.016796,0.02702 -0.031401,0.03651 -0.017526,0.01095 -0.042354,0.0058 -0.062801,7.3e-4 a 1.6605841,1.6605841 0 0 0 -0.3965277,-0.05404 c -0.1197607,0 -0.2497448,0.02191 -0.3811895,0.04601 h -7.302e-4 c -0.014605,0.0022 -0.027749,0.0051 -0.039433,-0.0037 a 0.15335209,0.15335209 0 0 1 -0.032861,-0.03724 z M 8.1050745,5.3031107 12.350737,1.0574485 c 0.58785,-0.58784961 0.88214,-0.88213961 1.222435,-0.98948609 a 1.4604961,1.4604961 0 0 1 0.88068,0 c 0.340295,0.10734648 0.634585,0.40163648 1.222435,0.98948609 l 0.920111,0.9201126 -3.019574,4.6765085 a 0.11318845,0.11318845 0 0 1 -0.02994,0.035052 c -0.01826,0.012414 -0.04381,0.0073 -0.06572,0 a 1.5313302,1.5313302 0 0 0 -1.402076,0.2701918 c -0.01972,0.020447 -0.04893,0.00876 -0.07376,-0.00219 C 11.610996,6.7855143 8.5439535,5.489324 8.1050745,5.3031107 Z M 17.237557,2.6187189 20.025643,5.406806 19.353816,9.5677596 v 0.01095 a 0.09858349,0.09858349 0 0 1 -0.0058,0.02775 c -0.0073,0.0146 -0.02191,0.01753 -0.03651,0.02191 a 1.3363539,1.3363539 0 0 0 -0.400177,0.199358 0.1124582,0.1124582 0 0 0 -0.0146,0.01241 c -0.008,0.0088 -0.01607,0.0168 -0.02921,0.01826 a 0.08324828,0.08324828 0 0 1 -0.0314,-0.0051 l -4.248633,-1.8051844 -0.008,-0.00365 c -0.02702,-0.010954 -0.05915,-0.024098 -0.05915,-0.051848 a 1.6050852,1.6050852 0 0 0 -0.22641,-0.6681778 c -0.02045,-0.033591 -0.04308,-0.068643 -0.02556,-0.102965 z m -2.871335,6.2845147 3.982773,1.6868734 c 0.02191,0.01022 0.046,0.01972 0.0555,0.04235 a 0.07740629,0.07740629 0 0 1 0,0.04163 c -0.01168,0.05842 -0.02191,0.124872 -0.02191,0.192055 v 0.111728 c 0,0.02775 -0.02848,0.03943 -0.05477,0.05039 l -0.008,0.0029 c -0.630935,0.269461 -8.8579085,3.777573 -8.8703225,3.777573 -0.01241,0 -0.02556,0 -0.03797,-0.01241 -0.02191,-0.02191 0,-0.05258 0.01972,-0.08033 a 0.55498852,0.55498852 0 0 0 0.01022,-0.0146 l 3.2729725,-5.0679224 0.0058,-0.0088 c 0.01899,-0.03067 0.04089,-0.06499 0.07594,-0.06499 l 0.03286,0.0051 c 0.07449,0.01022 0.140207,0.01972 0.206659,0.01972 0.496569,0 0.956626,-0.241712 1.234119,-0.655032 a 0.11683969,0.11683969 0 0 1 0.02483,-0.02921 c 0.01972,-0.014605 0.04893,-0.0073 0.07156,0.00292 z M 9.8050915,15.610562 18.772539,11.786253 c 0,0 0.01314,0 0.02556,0.01241 0.04893,0.04893 0.09055,0.08179 0.130714,0.112458 l 0.01972,0.01241 c 0.01826,0.01022 0.03651,0.02191 0.03797,0.04089 0,0.0073 0,0.01168 -0.0015,0.01826 l -0.768221,4.718863 -0.0029,0.01899 c -0.0051,0.03651 -0.01022,0.07814 -0.04454,0.07814 a 1.2625989,1.2625989 0 0 0 -1.002631,0.61852 l -0.0037,0.0058 c -0.01022,0.0168 -0.01972,0.03286 -0.03651,0.04162 -0.01534,0.0073 -0.03505,0.0044 -0.05112,7.31e-4 L 9.9240625,15.990243 c -0.0073,-0.0015 -0.110998,-0.378998 -0.119031,-0.379729 z"
     id="path116"
     style="fill:#ffffff;stroke-width:0.730248" />
</svg>
