<?xml version="1.0" encoding="utf-8"?>
<!-- Generator: Adobe Illustrator 14.0.0, SVG Export Plug-In . SVG Version: 6.00 Build 43363)  -->
<!DOCTYPE svg PUBLIC "-//W3C//DTD SVG 1.1//EN" "http://www.w3.org/Graphics/SVG/1.1/DTD/svg11.dtd">
<svg version="1.1" id="Layer_1" xmlns="http://www.w3.org/2000/svg" xmlns:xlink="http://www.w3.org/1999/xlink" x="0px" y="0px"
	 width="154.856px" height="137px" viewBox="0 0 154.856 137" enable-background="new 0 0 154.856 137" xml:space="preserve">
<g>
	<path d="M22.337,28.994H3.977l0.1,7.301v56.904l-0.1,7.3h13.34C11.92,91.064,8.819,80.147,8.819,68.5
		C8.819,53.613,13.871,39.915,22.337,28.994z"/>
	<path d="M150.88,100.499l-16.002-71.505h-10.462c8.465,10.921,13.517,24.619,13.517,39.506c0,10.029-2.287,19.525-6.368,27.993
		l0.714,4.006H150.88z"/>
	<path fill="#FF0000" d="M30.178,50.796v-1c0-4.601-1.6-6.301-5.4-6.301h-2.899v13.901h2.899
		C28.578,57.396,30.178,55.396,30.178,50.796z"/>
	<path fill="#FF0000" d="M76.276,70.497h-3.5v15.501h3.5c3.601,0,5.301-1.6,5.301-6.6v-2.201
		C81.577,72.297,79.677,70.497,76.276,70.497z"/>
	<polygon fill="#FF0000" points="124.278,54.896 120.478,78.897 128.578,78.897 124.778,54.896 	"/>
	<path fill="#FF0000" d="M118.177,93.199l-1.199,7.3H99.376l15.901-71.505h9.139c-11.81-15.233-30.272-25.051-51.04-25.051
		s-39.23,9.817-51.039,25.051h6.941c12.5,0,18.4,6.4,18.4,17.901v0.5c0,9.7-3.7,13.001-9.3,15.601v0.2c5.6,1.4,9.3,7.501,9.3,15.701
		v9.601c0,4.5,0,7.4,1.4,10.4v1.601H32.078c-1.4-1.601-1.8-4.9-1.8-8.001v-13.2c0-5.8-1.5-8.2-6.2-8.2h-2.2v22.102l0.1,7.3h-4.661
		c11.124,19.444,32.054,32.558,56.06,32.558c25.625,0,47.762-14.929,58.188-36.563l-0.587-3.294H118.177z M99.078,82.398
		c0,13.4-8.001,18.101-18.801,18.101H54.775l0.2-7.3V36.295l-0.101-7.301h25.103c12.5,0,18.601,6.2,18.601,17.802v0.699
		c0,7.701-1.7,13.802-9.101,16.102v0.399c7.601,2.2,9.601,7.102,9.601,16.602V82.398z"/>
	<path fill="#FF0000" d="M81.077,50.796v-1.101c0-4.6-1.7-6.2-5.4-6.2h-2.9v13.801h2.9C79.377,57.296,81.077,55.396,81.077,50.796z"
		/>
	<path d="M21.878,93.199V71.098h2.2c4.7,0,6.2,2.4,6.2,8.2v13.2c0,3.101,0.399,6.4,1.8,8.001h17.001v-1.601c-1.4-3-1.4-5.9-1.4-10.4
		v-9.601c0-8.2-3.7-14.301-9.3-15.701v-0.2c5.6-2.6,9.3-5.9,9.3-15.601v-0.5c0-11.501-5.9-17.901-18.4-17.901h-6.941
		C13.871,39.915,8.819,53.613,8.819,68.5c0,11.647,3.101,22.564,8.497,31.999h4.661L21.878,93.199z M21.878,43.495h2.899
		c3.801,0,5.4,1.7,5.4,6.301v1c0,4.601-1.6,6.601-5.4,6.601h-2.899V43.495z"/>
	<path fill="#FFFFFF" d="M21.878,93.199V71.098h2.2c4.7,0,6.2,2.4,6.2,8.2v13.2c0,3.101,0.399,6.4,1.8,8.001h17.001v-1.601
		c-1.4-3-1.4-5.9-1.4-10.4v-9.601c0-8.2-3.7-14.301-9.3-15.701v-0.2c5.6-2.6,9.3-5.9,9.3-15.601v-0.5
		c0-11.501-5.9-17.901-18.4-17.901h-6.941C13.871,39.915,8.819,53.613,8.819,68.5c0,11.647,3.101,22.564,8.497,31.999h4.661
		L21.878,93.199z M21.878,43.495h2.899c3.801,0,5.4,1.7,5.4,6.301v1c0,4.601-1.6,6.601-5.4,6.601h-2.899V43.495z"/>
	<path d="M89.478,63.996v-0.399c7.4-2.3,9.101-8.4,9.101-16.102v-0.699c0-11.602-6.101-17.802-18.601-17.802H54.875l0.101,7.301
		v56.904l-0.2,7.3h25.502c10.8,0,18.801-4.7,18.801-18.101v-1.801C99.078,71.098,97.078,66.196,89.478,63.996z M72.776,43.495h2.9
		c3.7,0,5.4,1.601,5.4,6.2v1.101c0,4.601-1.7,6.5-5.4,6.5h-2.9V43.495z M81.577,79.398c0,5-1.7,6.6-5.301,6.6h-3.5V70.497h3.5
		c3.4,0,5.301,1.8,5.301,6.7V79.398z"/>
	<path fill="#FFFFFF" d="M89.478,63.996v-0.399c7.4-2.3,9.101-8.4,9.101-16.102v-0.699c0-11.602-6.101-17.802-18.601-17.802H54.875
		l0.101,7.301v56.904l-0.2,7.3h25.502c10.8,0,18.801-4.7,18.801-18.101v-1.801C99.078,71.098,97.078,66.196,89.478,63.996z
		 M72.776,43.495h2.9c3.7,0,5.4,1.601,5.4,6.2v1.101c0,4.601-1.7,6.5-5.4,6.5h-2.9V43.495z M81.577,79.398c0,5-1.7,6.6-5.301,6.6
		h-3.5V70.497h3.5c3.4,0,5.301,1.8,5.301,6.7V79.398z"/>
	<path d="M124.416,28.994h-9.139l-15.901,71.505h17.602l1.199-7.3h12.801l0.587,3.294c4.081-8.468,6.368-17.964,6.368-27.993
		C137.933,53.613,132.881,39.915,124.416,28.994z M120.478,78.897l3.801-24.001h0.5l3.8,24.001H120.478z"/>
	<path fill="#FFFFFF" d="M124.416,28.994h-9.139l-15.901,71.505h17.602l1.199-7.3h12.801l0.587,3.294
		c4.081-8.468,6.368-17.964,6.368-27.993C137.933,53.613,132.881,39.915,124.416,28.994z M120.478,78.897l3.801-24.001h0.5
		l3.8,24.001H120.478z"/>
</g>
</svg>
