<?xml version="1.0" encoding="UTF-8" standalone="no"?>
<svg
   xmlns:dc="http://purl.org/dc/elements/1.1/"
   xmlns:cc="http://creativecommons.org/ns#"
   xmlns:rdf="http://www.w3.org/1999/02/22-rdf-syntax-ns#"
   xmlns:svg="http://www.w3.org/2000/svg"
   xmlns="http://www.w3.org/2000/svg"
   xmlns:sodipodi="http://sodipodi.sourceforge.net/DTD/sodipodi-0.dtd"
   xmlns:inkscape="http://www.inkscape.org/namespaces/inkscape"
   inkscape:version="1.0rc1 (09960d6, 2020-04-09)"
   sodipodi:docname="Gatsby_24x24.svg"
   xml:space="preserve"
   enable-background="new -399 301 28 28"
   viewBox="0 0 28 28"
   height="28"
   width="28"
   y="0px"
   x="0px"
   id="Ebene_1"
   version="1.1"><metadata
   id="metadata161"><rdf:RDF><cc:Work
       rdf:about=""><dc:format>image/svg+xml</dc:format><dc:type
         rdf:resource="http://purl.org/dc/dcmitype/StillImage" /><dc:title></dc:title></cc:Work></rdf:RDF></metadata><defs
   id="defs159" /><sodipodi:namedview
   inkscape:current-layer="Ebene_1"
   inkscape:window-maximized="1"
   inkscape:window-y="23"
   inkscape:window-x="0"
   inkscape:cy="14"
   inkscape:cx="14"
   inkscape:zoom="13.771567"
   showgrid="false"
   id="namedview157"
   inkscape:window-height="1035"
   inkscape:window-width="1920"
   inkscape:pageshadow="2"
   inkscape:pageopacity="0"
   guidetolerance="10"
   gridtolerance="10"
   objecttolerance="10"
   borderopacity="1"
   bordercolor="#666666"
   pagecolor="#ffffff" />
<g
   transform="translate(399,-301)"
   id="monogram">
	<rect
   id="rect145"
   height="28"
   width="28"
   fill="#ffffff"
   y="301"
   x="-399" />
	<circle
   id="circle147"
   r="12"
   cy="315"
   cx="-385"
   fill="#663399" />
	<g
   id="g153">
		<path
   inkscape:connector-curvature="0"
   id="path149"
   d="m -391.686,321.686 c -1.8,-1.8 -2.743,-4.197 -2.743,-6.514 l 9.343,9.258 c -2.4,-0.087 -4.8,-0.946 -6.6,-2.744 z"
   fill="#ffffff" />
		<path
   inkscape:connector-curvature="0"
   id="path151"
   d="m -382.943,324.172 -11.229,-11.229 c 0.943,-4.199 4.714,-7.371 9.171,-7.371 3.171,0 5.914,1.543 7.628,3.854 l -1.286,1.114 c -1.457,-1.973 -3.771,-3.257 -6.343,-3.257 -3.343,0 -6.171,2.143 -7.286,5.143 l 9.856,9.857 c 2.484,-0.857 4.373,-3 4.973,-5.572 h -4.111 V 315 h 6 c 0,4.457 -3.173,8.229 -7.373,9.172 z"
   fill="#ffffff" />
	</g>
</g>
</svg>
