<?xml version="1.0" encoding="UTF-8" standalone="no"?>
<svg
   xmlns:dc="http://purl.org/dc/elements/1.1/"
   xmlns:cc="http://creativecommons.org/ns#"
   xmlns:rdf="http://www.w3.org/1999/02/22-rdf-syntax-ns#"
   xmlns:svg="http://www.w3.org/2000/svg"
   xmlns="http://www.w3.org/2000/svg"
   xmlns:sodipodi="http://sodipodi.sourceforge.net/DTD/sodipodi-0.dtd"
   xmlns:inkscape="http://www.inkscape.org/namespaces/inkscape"
   version="1.1"
   id="svg10"
   xml:space="preserve"
   width="28"
   height="28"
   viewBox="0 0 28 28"
   sodipodi:docname="Gatsby_Monogram_Black.svg"
   inkscape:version="1.0rc1 (09960d6, 2020-04-09)"><metadata
     id="metadata16"><rdf:RDF><cc:Work
         rdf:about=""><dc:format>image/svg+xml</dc:format><dc:type
           rdf:resource="http://purl.org/dc/dcmitype/StillImage" /><dc:title></dc:title></cc:Work></rdf:RDF></metadata><defs
     id="defs14" /><sodipodi:namedview
     lock-margins="true"
     inkscape:document-rotation="0"
     pagecolor="#ffffff"
     bordercolor="#666666"
     borderopacity="1"
     objecttolerance="10"
     gridtolerance="10"
     guidetolerance="10"
     inkscape:pageopacity="0"
     inkscape:pageshadow="2"
     inkscape:window-width="1920"
     inkscape:window-height="1035"
     id="namedview12"
     showgrid="false"
     inkscape:zoom="11.30836"
     inkscape:cx="17.285677"
     inkscape:cy="16.666665"
     inkscape:window-x="0"
     inkscape:window-y="23"
     inkscape:window-maximized="1"
     inkscape:current-layer="g20"
     fit-margin-top="0"
     fit-margin-left="0"
     fit-margin-right="0"
     fit-margin-bottom="0" /><g
     id="g18"
     inkscape:groupmode="layer"
     inkscape:label="ink_ext_XXXXXX"
     transform="matrix(1.3333333,0,0,-1.3333333,-2.0000003,35.333332)"><g
       id="g20"
       transform="scale(0.1)"><path
         d="M 135.43117,91.211762 51.211782,175.42857 c 7.073937,31.49743 35.357146,55.28572 68.788228,55.28572 23.78829,0 44.35972,-11.56886 57.21686,-28.92858 l -9.64287,-8.35457 c -10.92856,14.78314 -28.28828,24.426 -47.57399,24.426 -25.071432,0 -46.288225,-16.07143 -54.642861,-38.57143 l 73.928571,-73.92857 c 18.64544,6.42858 32.78315,22.49999 37.28315,41.7857 H 145.7143 V 160 h 45 c 0,-33.43109 -23.7883,-61.711793 -55.28313,-68.788238 z M 69.859656,109.85965 C 56.357148,123.35463 49.285719,141.35456 49.285719,158.71171 L 119.35716,89.285702 C 101.35715,89.926053 83.354642,96.354617 69.859656,109.85965 Z M 120.00001,250 c -49.502512,0 -90.000007,-40.49744 -90.000007,-90 0,-49.50251 40.497495,-90.00001 90.000007,-90.00001 49.50257,0 90,40.4975 90,90.00001 0,49.50256 -40.49743,90 -90,90"
         style="fill:#000000;fill-opacity:1;fill-rule:nonzero;stroke:none;stroke-width:0.642857"
         id="path22"
         inkscape:connector-curvature="0" /></g></g></svg>
