<?xml version="1.0" encoding="UTF-8" standalone="no"?>
<svg
   xmlns:dc="http://purl.org/dc/elements/1.1/"
   xmlns:cc="http://creativecommons.org/ns#"
   xmlns:rdf="http://www.w3.org/1999/02/22-rdf-syntax-ns#"
   xmlns:svg="http://www.w3.org/2000/svg"
   xmlns="http://www.w3.org/2000/svg"
   xmlns:sodipodi="http://sodipodi.sourceforge.net/DTD/sodipodi-0.dtd"
   xmlns:inkscape="http://www.inkscape.org/namespaces/inkscape"
   sodipodi:docname="github.svg"
   inkscape:version="1.0rc1 (09960d6, 2020-04-09)"
   id="svg304"
   version="1.1"
   viewBox="0 0 28 28.000001"
   height="27.222223"
   width="27.910591">
  <defs
     id="defs298" />
  <sodipodi:namedview
     inkscape:window-maximized="1"
     inkscape:window-y="23"
     inkscape:window-x="0"
     inkscape:window-height="1117"
     inkscape:window-width="1920"
     fit-margin-bottom="0"
     fit-margin-right="0"
     fit-margin-left="0"
     fit-margin-top="0"
     showgrid="false"
     inkscape:document-rotation="0"
     inkscape:current-layer="layer1"
     inkscape:document-units="px"
     inkscape:cy="13.546668"
     inkscape:cx="11.809521"
     inkscape:zoom="8"
     inkscape:pageshadow="2"
     inkscape:pageopacity="0.0"
     borderopacity="1.0"
     bordercolor="#666666"
     pagecolor="#ffffff"
     id="base"
     units="px"
     viewbox-width="28.8"
     scale-x="1" />
  <metadata
     id="metadata301">
    <rdf:RDF>
      <cc:Work
         rdf:about="">
        <dc:format>image/svg+xml</dc:format>
        <dc:type
           rdf:resource="http://purl.org/dc/dcmitype/StillImage" />
        <dc:title></dc:title>
      </cc:Work>
    </rdf:RDF>
  </metadata>
  <g
     transform="translate(-0.10339139)"
     id="layer1"
     inkscape:groupmode="layer"
     inkscape:label="Layer 1">
    <path
       d="m 14.102365,-0.04484783 c -7.9509145,0 -14.39897137,6.44717903 -14.39897137,14.40072683 0,6.361427 4.12574827,11.759267 9.84802467,13.664334 0.7204687,0.13171 0.9830107,-0.312946 0.9830107,-0.694842 0,-0.342117 -0.01253,-1.247354 -0.02004,-2.448742 C 6.5088949,25.746508 5.6637582,22.945928 5.6637582,22.945928 5.0086935,21.282196 4.0645747,20.8393 4.0645747,20.8393 c -1.307475,-0.892861 0.098986,-0.875183 0.098986,-0.875183 1.4453724,0.101665 2.205635,1.484273 2.205635,1.484273 1.2844947,2.200335 3.3707736,1.564724 4.1911503,1.196086 0.130809,-0.929994 0.50301,-1.564721 0.914074,-1.924519 -3.1975156,-0.364216 -6.5594429,-1.599196 -6.5594429,-7.117266 0,-1.572674 0.5613445,-2.857158 1.48251,-3.8640603 C 6.2488877,9.3744127 5.7548009,7.910471 6.5388195,5.9276093 c 0,0 1.2084658,-0.3872024 3.9595305,1.4754344 1.148349,-0.3191331 2.380672,-0.4782572 3.605051,-0.4844449 1.223501,0.00622 2.454944,0.1653138 3.605048,0.4844449 2.749315,-1.8626368 3.956001,-1.4754344 3.956001,-1.4754344 0.785896,1.9828617 0.291736,3.4468034 0.144089,3.8110214 0.922919,1.0069023 1.479852,2.2913863 1.479852,3.8640603 0,5.532214 -3.367241,6.749515 -6.57448,7.105773 0.516291,0.444663 0.976847,1.323383 0.976847,2.667098 0,1.924517 -0.01755,3.477742 -0.01755,3.949809 0,0.385434 0.25991,0.833634 0.990127,0.693075 5.717862,-1.908606 9.840054,-7.302024 9.840054,-13.662567 4e-6,-7.9535478 -6.448053,-14.40072683 -14.401599,-14.40072683"
       style="fill:#1b1817;fill-opacity:1;fill-rule:evenodd;stroke:none;stroke-width:0.088402"
       id="path24"
       inkscape:connector-curvature="0" />
    <path
       inkscape:connector-curvature="0"
       id="path53"
       style="fill:#1b1817;fill-opacity:1;fill-rule:evenodd;stroke:none;stroke-width:0.088402"
       d="m 14.102365,-0.04484783 c -7.9509145,0 -14.39897137,6.44717903 -14.39897137,14.40072683 0,6.361427 4.12574827,11.759267 9.84802467,13.664334 0.7204687,0.13171 0.9830107,-0.312946 0.9830107,-0.694842 0,-0.342117 -0.01253,-1.247354 -0.02004,-2.448742 C 6.5088949,25.746508 5.6637582,22.945928 5.6637582,22.945928 5.0086935,21.282196 4.0645747,20.8393 4.0645747,20.8393 c -1.307475,-0.892861 0.098986,-0.875183 0.098986,-0.875183 1.4453724,0.101665 2.205635,1.484273 2.205635,1.484273 1.2844947,2.200335 3.3707736,1.564724 4.1911503,1.196086 0.130809,-0.929994 0.50301,-1.564721 0.914074,-1.924519 -3.1975156,-0.364216 -6.5594429,-1.599196 -6.5594429,-7.117266 0,-1.572674 0.5613445,-2.857158 1.48251,-3.8640603 C 6.2488877,9.3744127 5.7548009,7.910471 6.5388195,5.9276093 c 0,0 1.2084658,-0.3872024 3.9595305,1.4754344 1.148349,-0.3191331 2.380672,-0.4782572 3.605051,-0.4844449 1.223501,0.00622 2.454944,0.1653138 3.605048,0.4844449 2.749315,-1.8626368 3.956001,-1.4754344 3.956001,-1.4754344 0.785896,1.9828617 0.291736,3.4468034 0.144089,3.8110214 0.922919,1.0069023 1.479852,2.2913863 1.479852,3.8640603 0,5.532214 -3.367241,6.749515 -6.57448,7.105773 0.516291,0.444663 0.976847,1.323383 0.976847,2.667098 0,1.924517 -0.01755,3.477742 -0.01755,3.949809 0,0.385434 0.25991,0.833634 0.990127,0.693075 5.717862,-1.908606 9.840054,-7.302024 9.840054,-13.662567 4e-6,-7.9535478 -6.448053,-14.40072683 -14.401599,-14.40072683" />
  </g>
</svg>
