<?xml version="1.0" encoding="UTF-8" standalone="no"?>
<svg
   xmlns:dc="http://purl.org/dc/elements/1.1/"
   xmlns:cc="http://creativecommons.org/ns#"
   xmlns:rdf="http://www.w3.org/1999/02/22-rdf-syntax-ns#"
   xmlns:svg="http://www.w3.org/2000/svg"
   xmlns="http://www.w3.org/2000/svg"
   xmlns:sodipodi="http://sodipodi.sourceforge.net/DTD/sodipodi-0.dtd"
   xmlns:inkscape="http://www.inkscape.org/namespaces/inkscape"
   width="28.799999"
   height="28"
   viewBox="0 0 28.8 28"
   version="1.1"
   id="svg304"
   inkscape:version="1.0rc1 (09960d6, 2020-04-09)"
   sodipodi:docname="github.svg">
  <defs
     id="defs298" />
  <sodipodi:namedview
     scale-x="1"
     viewbox-width="28.8"
     units="px"
     id="base"
     pagecolor="#ffffff"
     bordercolor="#666666"
     borderopacity="1.0"
     inkscape:pageopacity="0.0"
     inkscape:pageshadow="2"
     inkscape:zoom="8"
     inkscape:cx="12.698929"
     inkscape:cy="13.546668"
     inkscape:document-units="px"
     inkscape:current-layer="layer1"
     inkscape:document-rotation="0"
     showgrid="false"
     fit-margin-top="0"
     fit-margin-left="0"
     fit-margin-right="0"
     fit-margin-bottom="0"
     inkscape:window-width="1920"
     inkscape:window-height="1116"
     inkscape:window-x="0"
     inkscape:window-y="23"
     inkscape:window-maximized="1" />
  <metadata
     id="metadata301">
    <rdf:RDF>
      <cc:Work
         rdf:about="">
        <dc:format>image/svg+xml</dc:format>
        <dc:type
           rdf:resource="http://purl.org/dc/dcmitype/StillImage" />
        <dc:title></dc:title>
      </cc:Work>
    </rdf:RDF>
  </metadata>
  <g
     inkscape:label="Layer 1"
     inkscape:groupmode="layer"
     id="layer1"
     transform="translate(0.3540185)">
    <path
       inkscape:connector-curvature="0"
       id="path24"
       style="fill:#1b1817;fill-opacity:1;fill-rule:evenodd;stroke:none;stroke-width:0.0881197"
       d="M 14.044956,-1.8899619e-7 C 6.1194302,-1.8899619e-7 -0.30803679,6.4265918 -0.30803679,14.354743 c 0,6.341113 4.11257399,11.721717 9.81657799,13.620701 0.7181688,0.131289 0.9798718,-0.311947 0.9798718,-0.692624 0,-0.341024 -0.01249,-1.24337 -0.01998,-2.440922 -3.9926998,0.867101 -4.8351378,-1.924536 -4.8351378,-1.924536 -0.652973,-1.658419 -1.594077,-2.099901 -1.594077,-2.099901 -1.3033,-0.89001 0.09867,-0.872389 0.09867,-0.872389 1.440757,0.101341 2.198592,1.479534 2.198592,1.479534 1.280393,2.193309 3.36001,1.559727 4.1777678,1.192266 0.130391,-0.927024 0.501403,-1.559724 0.911155,-1.918373 -3.1873058,-0.363053 -6.5384978,-1.59409 -6.5384978,-7.094539 0,-1.567652 0.559552,-2.848035 1.477776,-3.8517222 -0.148125,-0.363055 -0.640634,-1.822322 0.140881,-3.798852 0,0 1.204607,-0.385966 3.9468878,1.470723 1.144682,-0.318114 2.37307,-0.47673 3.593539,-0.482898 1.219594,0.0062 2.447105,0.164786 3.593536,0.482898 2.740536,-1.856689 3.943369,-1.470723 3.943369,-1.470723 0.783386,1.97653 0.290804,3.435797 0.143629,3.798852 0.919972,1.0036872 1.475126,2.2840702 1.475126,3.8517222 0,5.514548 -3.356488,6.727962 -6.553486,7.083083 0.514642,0.443243 0.973728,1.319157 0.973728,2.658581 0,1.918372 -0.01749,3.466637 -0.01749,3.937196 0,0.384204 0.25908,0.830972 0.986965,0.690862 5.699604,-1.902511 9.808633,-7.278707 9.808633,-13.618939 C 28.399999,6.4265918 21.972532,-1.8899618e-7 14.044383,-1.8899618e-7" />
  </g>
</svg>
