<?xml version="1.0" encoding="UTF-8" standalone="no"?>
<svg
   xmlns:dc="http://purl.org/dc/elements/1.1/"
   xmlns:cc="http://creativecommons.org/ns#"
   xmlns:rdf="http://www.w3.org/1999/02/22-rdf-syntax-ns#"
   xmlns:svg="http://www.w3.org/2000/svg"
   xmlns="http://www.w3.org/2000/svg"
   xmlns:sodipodi="http://sodipodi.sourceforge.net/DTD/sodipodi-0.dtd"
   xmlns:inkscape="http://www.inkscape.org/namespaces/inkscape"
   sodipodi:docname="github_24x24.svg"
   inkscape:version="1.0rc1 (09960d6, 2020-04-09)"
   id="svg304"
   version="1.1"
   viewBox="0 0 28 28"
   height="28"
   width="28">
  <defs
     id="defs298" />
  <sodipodi:namedview
     inkscape:snap-page="true"
     inkscape:window-maximized="1"
     inkscape:window-y="23"
     inkscape:window-x="0"
     inkscape:window-height="1035"
     inkscape:window-width="1920"
     fit-margin-bottom="0"
     fit-margin-right="0"
     fit-margin-left="0"
     fit-margin-top="0"
     showgrid="false"
     inkscape:document-rotation="0"
     inkscape:current-layer="g71"
     inkscape:document-units="px"
     inkscape:cy="14.546668"
     inkscape:cx="9.809521"
     inkscape:zoom="8"
     inkscape:pageshadow="2"
     inkscape:pageopacity="0.0"
     borderopacity="1.0"
     bordercolor="#666666"
     pagecolor="#ffffff"
     id="base"
     units="px"
     viewbox-width="28.8"
     scale-x="1" />
  <metadata
     id="metadata301">
    <rdf:RDF>
      <cc:Work
         rdf:about="">
        <dc:format>image/svg+xml</dc:format>
        <dc:type
           rdf:resource="http://purl.org/dc/dcmitype/StillImage" />
        <dc:title></dc:title>
      </cc:Work>
    </rdf:RDF>
  </metadata>
  <g
     style="display:inline"
     transform="translate(-0.10339139)"
     id="layer1"
     inkscape:groupmode="layer"
     inkscape:label="Layer 1">
    <g
       id="g71">
      <rect
         style="opacity:0.82;fill:none;stroke-width:1.19542"
         id="rect67"
         width="28"
         height="28"
         x="0.10339139"
         y="0" />
      <path
         d="m 14.102511,1.9999998 c -6.793309,0 -12.302566,5.3937468 -12.302566,12.0477292 0,5.322005 3.5250631,9.837871 8.41421,11.431662 0.615574,0.110188 0.839891,-0.261813 0.839891,-0.581312 0,-0.286217 -0.0107,-1.043541 -0.01712,-2.04863 C 7.6146072,23.577194 6.8925173,21.234212 6.8925173,21.234212 6.3328264,19.842325 5.5261658,19.471797 5.5261658,19.471797 c -1.1171145,-0.746973 0.084574,-0.732183 0.084574,-0.732183 1.2349342,0.08506 1.8845071,1.241751 1.8845071,1.241751 1.0974795,1.84081 2.8800101,1.309056 3.5809441,1.000651 0.111764,-0.778039 0.429775,-1.309053 0.78099,-1.610062 -2.7319763,-0.304708 -5.6044274,-1.337897 -5.6044274,-5.954348 0,-1.315707 0.4796167,-2.390313 1.2666656,-3.232691 C 7.3924544,9.8802068 6.9703038,8.6554645 7.6401737,6.9965914 c 0,0 1.0325205,-0.3239356 3.3830463,1.2343564 0.981156,-0.2669879 2.034061,-0.4001129 3.080178,-0.4052888 1.045366,0.00525 2.097518,0.1383019 3.080174,0.4052888 2.349031,-1.558292 3.38003,-1.2343564 3.38003,-1.2343564 0.671474,1.6588731 0.249261,2.8836154 0.12311,3.1883236 0.788547,0.842378 1.264395,1.916984 1.264395,3.232691 0,4.628286 -2.876991,5.646685 -5.617275,5.944734 0.441123,0.372007 0.834625,1.107146 0.834625,2.231309 0,1.610059 -0.01499,2.909498 -0.01499,3.30443 0,0.322457 0.222069,0.697425 0.84597,0.579832 4.885376,-1.596749 8.407401,-6.108918 8.407401,-11.430182 0,-6.6539824 -5.509257,-12.0477292 -12.304813,-12.0477292"
         style="fill:#1b1817;fill-opacity:1;fill-rule:evenodd;stroke:none;stroke-width:0.0747403"
         id="path53"
         inkscape:connector-curvature="0" />
    </g>
  </g>
</svg>
