<?xml version="1.0" encoding="UTF-8" standalone="no"?>
<svg
   xmlns:dc="http://purl.org/dc/elements/1.1/"
   xmlns:cc="http://creativecommons.org/ns#"
   xmlns:rdf="http://www.w3.org/1999/02/22-rdf-syntax-ns#"
   xmlns:svg="http://www.w3.org/2000/svg"
   xmlns="http://www.w3.org/2000/svg"
   xmlns:sodipodi="http://sodipodi.sourceforge.net/DTD/sodipodi-0.dtd"
   xmlns:inkscape="http://www.inkscape.org/namespaces/inkscape"
   sodipodi:docname="github-header.svg"
   inkscape:version="1.0rc1 (09960d6, 2020-04-09)"
   id="svg304"
   version="1.1"
   viewBox="0 0 25.632172 25"
   height="25"
   width="25.632172">
  <defs
     id="defs298" />
  <sodipodi:namedview
     inkscape:window-maximized="1"
     inkscape:window-y="23"
     inkscape:window-x="0"
     inkscape:window-height="1116"
     inkscape:window-width="1920"
     fit-margin-bottom="0"
     fit-margin-right="0"
     fit-margin-left="0"
     fit-margin-top="0"
     showgrid="false"
     inkscape:document-rotation="0"
     inkscape:current-layer="layer1"
     inkscape:document-units="px"
     inkscape:cy="13.546668"
     inkscape:cx="12.652947"
     inkscape:zoom="8"
     inkscape:pageshadow="2"
     inkscape:pageopacity="0.0"
     borderopacity="1.0"
     bordercolor="#666666"
     pagecolor="#ffffff"
     id="base"
     units="px"
     viewbox-width="28.8"
     scale-x="1" />
  <metadata
     id="metadata301">
    <rdf:RDF>
      <cc:Work
         rdf:about="">
        <dc:format>image/svg+xml</dc:format>
        <dc:type
           rdf:resource="http://purl.org/dc/dcmitype/StillImage" />
        <dc:title></dc:title>
      </cc:Work>
    </rdf:RDF>
  </metadata>
  <g
     transform="translate(0.30803679)"
     id="layer1"
     inkscape:groupmode="layer"
     inkscape:label="Layer 1">
    <path
       d="M 12.507135,-1.8899619e-7 C 5.4307729,-1.8899619e-7 -0.30803679,5.7380283 -0.30803679,12.816735 c 0,5.661707 3.67194099,10.465818 8.76480159,12.161339 0.6412221,0.117223 0.8748855,-0.278524 0.8748855,-0.618414 0,-0.304486 -0.011152,-1.110152 -0.017839,-2.179394 C 5.7489006,22.954463 4.9967238,20.46193 4.9967238,20.46193 4.4137122,18.981199 3.5734408,18.587018 3.5734408,18.587018 2.4097801,17.792367 3.661539,17.8081 3.661539,17.8081 c 1.2863902,0.09048 1.9630285,1.321012 1.9630285,1.321012 1.1432081,1.958312 3.0000089,1.392613 3.7301498,1.064523 0.1164205,-0.8277 0.4476812,-1.39261 0.8135317,-1.712833 -2.8458092,-0.324154 -5.8379448,-1.423294 -5.8379448,-6.334409 0,-1.39969 0.4996,-2.5428888 1.3194428,-3.439038 C 5.5174925,8.3831987 5.0777524,7.0802818 5.7755336,5.3155229 c 0,0 1.075542,-0.3446125 3.5240069,1.3131455 1.0220375,-0.2840303 2.1188125,-0.4256518 3.2085165,-0.4311589 1.088924,0.00554 2.184916,0.1471304 3.208515,0.4311589 2.446907,-1.657758 3.520865,-1.3131455 3.520865,-1.3131455 0.699452,1.7647589 0.259646,3.0676758 0.12824,3.3918321 0.821403,0.8961492 1.317077,2.039348 1.317077,3.439038 0,4.923703 -2.996865,6.007108 -5.851327,6.324181 0.459502,0.395752 0.8694,1.177818 0.8694,2.373733 0,1.712832 -0.01562,3.095211 -0.01562,3.515353 0,0.343039 0.231321,0.741939 0.881219,0.616841 5.088932,-1.69867 8.757708,-6.498845 8.757708,-12.159766 C 25.324138,5.7380283 19.585328,-1.8899618e-7 12.506623,-1.8899618e-7"
       style="fill:#1b1817;fill-opacity:1;fill-rule:evenodd;stroke:none;stroke-width:0.0786783"
       id="path24"
       inkscape:connector-curvature="0" />
  </g>
</svg>
