<?xml version="1.0" encoding="UTF-8" standalone="no"?>
<svg
   xmlns:dc="http://purl.org/dc/elements/1.1/"
   xmlns:cc="http://creativecommons.org/ns#"
   xmlns:rdf="http://www.w3.org/1999/02/22-rdf-syntax-ns#"
   xmlns:svg="http://www.w3.org/2000/svg"
   xmlns="http://www.w3.org/2000/svg"
   xmlns:sodipodi="http://sodipodi.sourceforge.net/DTD/sodipodi-0.dtd"
   xmlns:inkscape="http://www.inkscape.org/namespaces/inkscape"
   inkscape:version="1.0rc1 (09960d6, 2020-04-09)"
   viewBox="0 0 28 28"
   sodipodi:docname="netlify.svg"
   id="svg135"
   version="1.1"
   height="28"
   width="28">
  <metadata
     id="metadata139">
    <rdf:RDF>
      <cc:Work
         rdf:about="">
        <dc:format>image/svg+xml</dc:format>
        <dc:type
           rdf:resource="http://purl.org/dc/dcmitype/StillImage" />
        <dc:title></dc:title>
      </cc:Work>
    </rdf:RDF>
  </metadata>
  <sodipodi:namedview
     inkscape:current-layer="g133"
     inkscape:window-maximized="1"
     inkscape:window-y="23"
     inkscape:window-x="1920"
     inkscape:cy="20.10143"
     inkscape:cx="31.685841"
     inkscape:zoom="11.332949"
     fit-margin-bottom="0"
     fit-margin-right="0"
     fit-margin-left="0"
     fit-margin-top="0"
     showgrid="false"
     id="namedview137"
     inkscape:window-height="971"
     inkscape:window-width="1680"
     inkscape:pageshadow="2"
     inkscape:pageopacity="0"
     guidetolerance="10"
     gridtolerance="10"
     objecttolerance="10"
     borderopacity="1"
     bordercolor="#666666"
     pagecolor="#ffffff" />
  <defs
     id="defs127">
    <radialGradient
       gradientUnits="userSpaceOnUse"
       cx="19.992489"
       gradientTransform="matrix(0.62558291,0,0,0.62627112,55.122035,2.3100815)"
       fy="0.82847679"
       fx="19.992489"
       r="38.36422"
       cy="0.82847679"
       id="a">
      <stop
         id="stop122"
         stop-color="#20C6B7"
         offset="0%" />
      <stop
         id="stop124"
         stop-color="#4D9ABF"
         offset="100%" />
    </radialGradient>
  </defs>
  <g
     transform="translate(-53.629,-0.8289329)"
     id="g133"
     fill-rule="evenodd"
     fill="none">
    <path
       style="fill:url(#a);stroke-width:0.625927"
       inkscape:connector-curvature="0"
       id="path131"
       d="m 73.016661,11.15756 -0.0087,-0.0039 c -0.0052,-0.002 -0.01003,-0.0039 -0.01439,-0.0082 a 0.06885197,0.06885197 0 0 1 -0.01755,-0.05823 l 0.483835,-2.9581318 2.26899,2.2696118 -2.359745,1.003988 a 0.05195191,0.05195191 0 0 1 -0.02062,0.0039 h -0.0094 c -0.0032,-0.002 -0.0065,-0.0045 -0.01254,-0.01068 a 1.074091,1.074091 0 0 0 -0.309873,-0.238476 z m 3.291126,-0.180267 2.426092,2.426092 c 0.503871,0.504493 0.75612,0.756119 0.848129,1.0478 0.01375,0.04319 0.02505,0.08638 0.03381,0.130824 l -5.797961,-2.455517 a 0.45567483,0.45567483 0 0 0 -0.0094,-0.0039 c -0.02313,-0.0094 -0.05007,-0.02006 -0.05007,-0.04384 0,-0.02378 0.02754,-0.03502 0.05072,-0.04443 l 0.0075,-0.0032 z m 3.20913,4.383369 c -0.125188,0.235346 -0.369301,0.479459 -0.782415,0.893195 l -2.735299,2.734676 -3.537737,-0.736716 -0.01876,-0.0039 c -0.03129,-0.0052 -0.06447,-0.01067 -0.06447,-0.03883 a 1.0678316,1.0678316 0 0 0 -0.40999,-0.746677 c -0.01439,-0.01439 -0.01064,-0.03696 -0.0065,-0.05758 0,-0.0032 0,-0.0065 0.0013,-0.0087 l 0.665359,-4.084797 0.0026,-0.01375 c 0.0039,-0.0313 0.0094,-0.06759 0.03753,-0.06759 a 1.0828536,1.0828536 0 0 0 0.726011,-0.416196 c 0.0058,-0.0065 0.0094,-0.01313 0.0169,-0.0169 0.02006,-0.0094 0.04384,0 0.06446,0.0087 l 6.040193,2.555037 z m -4.146769,4.256928 -4.497913,4.497912 0.769894,-4.732012 0.0013,-0.0065 c 6.3e-4,-0.0065 0.0019,-0.01254 0.0039,-0.01813 0.0065,-0.01504 0.02255,-0.02126 0.03818,-0.02756 l 0.0075,-0.0032 a 1.1579649,1.1579649 0 0 0 0.435016,-0.323606 c 0.01504,-0.01755 0.03316,-0.03445 0.05634,-0.03753 a 0.05633345,0.05633345 0 0 1 0.01814,0 l 3.167176,0.650994 z m -5.44995,5.44994 -0.506999,0.507 -5.605175,-8.100743 a 0.26539303,0.26539303 0 0 0 -0.0065,-0.0087 c -0.0087,-0.01189 -0.01814,-0.02378 -0.01625,-0.03752 0,-0.01003 0.0069,-0.01876 0.01375,-0.02629 l 0.0065,-0.0082 c 0.0169,-0.02507 0.03129,-0.05007 0.04694,-0.07699 l 0.01253,-0.02192 0.002,-0.0019 c 0.0087,-0.01504 0.0169,-0.02943 0.03195,-0.03753 0.01313,-0.0065 0.03129,-0.0039 0.0457,-6.24e-4 l 6.209824,1.280648 a 0.10265202,0.10265202 0 0 1 0.04755,0.02063 c 0.0082,0.0082 0.01003,0.0169 0.01189,0.02693 a 1.0997536,1.0997536 0 0 0 0.643451,0.735462 c 0.01755,0.0087 0.01003,0.02815 0.0019,0.04886 a 0.14897061,0.14897061 0 0 0 -0.0094,0.02815 c -0.07824,0.475708 -0.749236,4.568018 -0.929503,5.672774 z m -1.059066,1.058443 c -0.373675,0.369924 -0.594002,0.56584 -0.843123,0.644707 a 1.2518542,1.2518542 0 0 1 -0.754866,0 c -0.291687,-0.09264 -0.543934,-0.344259 -1.047807,-0.84876 l -5.628958,-5.628962 1.4703,-2.280248 c 0.0069,-0.01124 0.01374,-0.02127 0.02507,-0.02943 0.01563,-0.01124 0.03818,-0.0065 0.05694,0 a 1.5235061,1.5235061 0 0 0 1.025271,-0.05193 c 0.0169,-0.0065 0.03381,-0.01064 0.04693,0.0013 a 0.11892609,0.11892609 0 0 1 0.01755,0.02006 l 5.632708,8.173917 z m -8.817433,-6.37569 -1.291287,-1.291291 2.550025,-1.087859 a 0.05257784,0.05257784 0 0 1 0.02066,-0.0045 c 0.02127,0 0.03381,0.02127 0.04507,0.04069 a 1.8214474,1.8214474 0 0 0 0.08137,0.115173 l 0.0082,0.01003 c 0.0075,0.01065 0.0025,0.02127 -0.005,0.0313 l -1.408339,2.186339 z M 58.18094,17.887524 56.547271,16.253857 c -0.277911,-0.277912 -0.47946,-0.479459 -0.619668,-0.652843 l 4.967357,1.030273 a 0.5257786,0.5257786 0 0 0 0.01878,0.0032 c 0.03067,0.0052 0.06447,0.01067 0.06447,0.03947 0,0.0313 -0.03693,0.0457 -0.06823,0.05758 l -0.01439,0.0065 z m -2.538759,-3.126503 a 1.2518542,1.2518542 0 0 1 0.05633,-0.309836 c 0.09264,-0.291681 0.34426,-0.543307 0.848757,-1.0478 l 2.090596,-2.090599 a 1361.7199,1361.7199 0 0 0 2.895539,4.185575 c 0.0169,0.02257 0.03568,0.04755 0.01627,0.06634 -0.09139,0.100778 -0.18277,0.210938 -0.247241,0.330494 a 0.10014829,0.10014829 0 0 1 -0.03129,0.03883 c -0.0082,0.0052 -0.0169,0.0032 -0.02629,0.0013 h -0.0012 l -5.601469,-1.17495 z m 3.555265,-4.007806 2.80979,-2.8110428 c 0.264762,0.1157967 1.226811,0.5220232 2.086209,0.8850583 0.650965,0.2754137 1.244347,0.5257792 1.430872,0.6071538 0.01876,0.00754 0.03567,0.015043 0.04384,0.033806 0.0052,0.011237 0.0026,0.025637 0,0.037526 a 1.2537316,1.2537316 0 0 0 0.327357,1.1441937 c 0.01876,0.01876 0,0.0457 -0.01626,0.06886 l -0.0087,0.01313 -2.854226,4.420922 c -0.0075,0.01254 -0.01439,0.02313 -0.02693,0.0313 -0.01504,0.0094 -0.03632,0.0052 -0.05386,6.24e-4 a 1.4233581,1.4233581 0 0 0 -0.339878,-0.04634 c -0.102654,0 -0.214067,0.01876 -0.326734,0.03945 h -6.23e-4 c -0.01254,0.0019 -0.02379,0.0045 -0.03381,-0.0032 a 0.13144469,0.13144469 0 0 1 -0.02815,-0.03195 l -3.009536,-4.389528 z m 3.378752,-3.3787585 3.639138,-3.6391393 c 0.503873,-0.5038711 0.75612,-0.7561198 1.047807,-0.848131 a 1.2518542,1.2518542 0 0 1 0.754867,0 c 0.29168,0.092011 0.543929,0.3442599 1.047799,0.848131 l 0.788668,0.7886677 -2.588202,4.0084365 a 0.09701869,0.09701869 0 0 1 -0.02565,0.030047 c -0.01564,0.010644 -0.03753,0.00622 -0.05634,0 a 1.3125689,1.3125689 0 0 0 -1.201788,0.2315924 c -0.0169,0.017552 -0.04196,0.00753 -0.06324,-0.00195 -0.337988,-0.147045 -2.96688,-1.2580644 -3.343064,-1.4176759 z m 7.827845,-2.3009071 2.389784,2.3897885 -0.575845,3.5665341 v 0.0094 a 0.08450017,0.08450017 0 0 1 -0.0052,0.02379 c -0.0065,0.01254 -0.01876,0.01504 -0.03129,0.01876 a 1.1454462,1.1454462 0 0 0 -0.343009,0.170876 0.09639277,0.09639277 0 0 0 -0.01254,0.01068 c -0.0069,0.0075 -0.01375,0.01439 -0.02505,0.01561 a 0.07135564,0.07135564 0 0 1 -0.02693,-0.0045 l -3.641642,-1.5472929 -0.0069,-0.00326 c -0.02313,-0.00938 -0.05072,-0.020623 -0.05072,-0.044417 A 1.3757874,1.3757874 0 0 0 67.880721,9.106864 c -0.01756,-0.028792 -0.03696,-0.058809 -0.02192,-0.088256 z m -2.461146,5.3867236 3.413805,1.445893 c 0.01875,0.0087 0.03946,0.0169 0.04755,0.03632 a 0.06634823,0.06634823 0 0 1 0,0.03567 c -0.01003,0.05007 -0.01875,0.10703 -0.01875,0.164615 v 0.09577 c 0,0.02378 -0.02442,0.03381 -0.04691,0.04319 l -0.0069,0.0026 c -0.540804,0.230968 -7.592494,3.237921 -7.603138,3.237921 -0.01064,0 -0.02192,0 -0.03251,-0.01067 -0.01876,-0.01876 0,-0.04505 0.0169,-0.06886 a 0.47570449,0.47570449 0 0 0 0.0087,-0.01254 l 2.805405,-4.343938 0.0052,-0.0075 c 0.01625,-0.02629 0.03502,-0.05573 0.0651,-0.05573 l 0.02815,0.0045 c 0.06383,0.0087 0.120179,0.0169 0.177139,0.0169 0.425629,0 0.819963,-0.207183 1.057815,-0.561456 a 0.10014829,0.10014829 0 0 1 0.02127,-0.02506 c 0.0169,-0.01254 0.04196,-0.0065 0.06132,0.0026 z m -3.90954,5.749141 7.686384,-3.277975 c 0,0 0.01124,0 0.02192,0.01065 0.04195,0.04192 0.07762,0.0701 0.112044,0.09639 l 0.0169,0.01067 c 0.01562,0.0087 0.0313,0.01876 0.03251,0.03502 0,0.0065 0,0.01003 -0.0013,0.01565 l -0.658473,4.044737 -0.0026,0.01625 c -0.0045,0.0313 -0.0087,0.06697 -0.03818,0.06697 a 1.0822275,1.0822275 0 0 0 -0.859387,0.530165 l -0.0032,0.0052 c -0.0087,0.01439 -0.0169,0.02815 -0.0313,0.03568 -0.01315,0.0065 -0.03004,0.0039 -0.04384,6.24e-4 l -6.12963,-1.264358 c -0.0065,-0.0013 -0.09514,-0.324856 -0.102028,-0.325478 z"
       fill-rule="nonzero"
       fill="url(#a)" />
  </g>
</svg>
