<?xml version="1.0" encoding="UTF-8" standalone="no"?>
<svg
   xmlns:dc="http://purl.org/dc/elements/1.1/"
   xmlns:cc="http://creativecommons.org/ns#"
   xmlns:rdf="http://www.w3.org/1999/02/22-rdf-syntax-ns#"
   xmlns:svg="http://www.w3.org/2000/svg"
   xmlns="http://www.w3.org/2000/svg"
   xmlns:sodipodi="http://sodipodi.sourceforge.net/DTD/sodipodi-0.dtd"
   xmlns:inkscape="http://www.inkscape.org/namespaces/inkscape"
   id="Layer_1"
   data-name="Layer 1"
   viewBox="0 0 286.48 123.08"
   version="1.1"
   sodipodi:docname="rba.svg"
   inkscape:version="0.92.4 (5da689c313, 2019-01-14)">
  <metadata
     id="metadata830">
    <rdf:RDF>
      <cc:Work
         rdf:about="">
        <dc:format>image/svg+xml</dc:format>
        <dc:type
           rdf:resource="http://purl.org/dc/dcmitype/StillImage" />
        <dc:title></dc:title>
      </cc:Work>
    </rdf:RDF>
  </metadata>
  <sodipodi:namedview
     pagecolor="#ffffff"
     bordercolor="#666666"
     borderopacity="1"
     objecttolerance="10"
     gridtolerance="10"
     guidetolerance="10"
     inkscape:pageopacity="0"
     inkscape:pageshadow="2"
     inkscape:window-width="1920"
     inkscape:window-height="1013"
     id="namedview828"
     showgrid="false"
     inkscape:zoom="4.9776597"
     inkscape:cx="143.24001"
     inkscape:cy="61.540001"
     inkscape:window-x="-9"
     inkscape:window-y="-9"
     inkscape:window-maximized="1"
     inkscape:current-layer="Layer_1" />
  <defs
     id="defs817">
    <style
       id="style815">.cls-1{fill:#39b54a;}.cls-2,.cls-3,.cls-4{fill:#231f20;}.cls-2{opacity:0.75;}.cls-3{opacity:0.5;}.cls-4{opacity:0.15;}</style>
  </defs>
  <polygon
     class="cls-1"
     points="46.71 123.02 46.67 123.02 46.71 123.08 46.71 123.02"
     id="polygon819" />
  <path
     class="cls-2"
     d="M252.39,403c0-24.05-17.38-43.53-50-43.53h-48.1V473.21h20.36V446.35h25.81a62.42,62.42,0,0,0,10.18-.88l19.83,27.74h23.7L229,439.86A40.37,40.37,0,0,0,252.39,403ZM203.24,428.8H174.62v-52h28.79c16.15,0,27.56,11.58,27.56,26.15C231,417.21,219.56,428.8,203.24,428.8Z"
     transform="translate(-154.26 -359.46)"
     id="path821" />
  <path
     class="cls-3"
     d="M329.27,408.61c6.32-3.16,11.94-11.41,11.94-20.36,0-20-15.27-28.79-34.06-28.79h-53V473.21h64.77l25.25-56A28.24,28.24,0,0,0,329.27,408.61ZM274.51,377h30.71c9.83,0,14.75,5.27,14.75,13s-5.09,12.47-13.87,12.47H274.51Zm32.82,78.64H274.51V419.84h34.75c13,0,21.42,6.32,21.42,18.26C330.68,449.86,321.55,455.65,307.33,455.65Z"
     transform="translate(-154.26 -359.46)"
     id="path823" />
  <path
     class="cls-4"
     d="M389.48,359.46H370.17l-26,57.73a30.22,30.22,0,0,1,7.76,20.56c0,20-13,31.71-32.66,34.69l-.35.77h20.72l8.95-19.66h62.49L420,473.21h20.72ZM355.6,437.4l13-29.49c5.09-11.41,11.24-26.51,11.24-26.51s6.32,15.27,11.23,26.51l13,29.49Z"
     transform="translate(-154.26 -359.46)"
     id="path825" />
</svg>
