<?xml version="1.0" encoding="UTF-8" standalone="no"?>
<svg xmlns:dc="http://purl.org/dc/elements/1.1/"
   xmlns:cc="http://creativecommons.org/ns#"
   xmlns:rdf="http://www.w3.org/1999/02/22-rdf-syntax-ns#"
   xmlns:svg="http://www.w3.org/2000/svg"
   xmlns="http://www.w3.org/2000/svg"
   xmlns:sodipodi="http://sodipodi.sourceforge.net/DTD/sodipodi-0.dtd"
   xmlns:inkscape="http://www.inkscape.org/namespaces/inkscape" inkscape:version="1.0rc1 (09960d6, 2020-04-09)" height="21.516092" width="50" sodipodi:docname="rbav2.svg" id="svg79" version="1.1" viewBox="0 0 49.999998 21.516092">
   <metadata id="metadata85">
      <rdf:RDF>
         <cc:Work rdf:about="">
            <dc:format>image/svg+xml</dc:format>
            <dc:type rdf:resource="http://purl.org/dc/dcmitype/StillImage" />
            <dc:title></dc:title>
         </cc:Work>
      </rdf:RDF>
   </metadata>
   <defs id="defs83" />
   <sodipodi:namedview inkscape:current-layer="svg79" inkscape:window-maximized="1" inkscape:window-y="23" inkscape:window-x="1920" inkscape:cy="61.54" inkscape:cx="132.24" inkscape:zoom="2.8357532" fit-margin-bottom="0" fit-margin-right="0" fit-margin-left="0" fit-margin-top="0" showgrid="false" id="namedview81" inkscape:window-height="971" inkscape:window-width="1680" inkscape:pageshadow="2" inkscape:pageopacity="0" guidetolerance="10" gridtolerance="10" objecttolerance="10" borderopacity="1" bordercolor="#666666" pagecolor="#ffffff" />
   <g transform="matrix(0.18908596,0,0,0.18908596,-0.00567258,0)" id="g90">
      <path inkscape:connector-curvature="0" d="m 263.39,402.49 c 0,-24.05 -17.38,-43.53 -50,-43.53 h -48.1 v 113.75 h 20.36 v -26.86 h 25.81 a 62.42,62.42 0 0 0 10.18,-0.88 l 19.83,27.74 h 23.7 L 240,439.36 a 40.37,40.37 0 0 0 23.39,-36.87 z m -49.15,25.81 h -28.62 v -52 h 28.79 c 16.15,0 27.56,11.58 27.56,26.15 0.03,14.26 -11.41,25.85 -27.73,25.85 z" transform="translate(-165.26,-358.96)" style="opacity:0.75;fill:#231f20" id="path73" />
      <path inkscape:connector-curvature="0" d="m 318.27,408.11 c 6.32,-3.16 11.94,-11.41 11.94,-20.36 0,-20 -15.27,-28.79 -34.06,-28.79 h -53 v 113.75 h 64.77 l 25.25,-56 a 28.24,28.24 0 0 0 -14.9,-8.6 z m -54.76,-31.6 h 30.71 c 9.83,0 14.75,5.27 14.75,13 0,7.73 -5.09,12.49 -13.87,12.49 h -31.59 z m 32.82,78.64 h -32.82 v -35.81 h 34.75 c 13,0 21.42,6.32 21.42,18.26 0,11.76 -9.13,17.55 -23.35,17.55 z" transform="translate(-165.26,-358.96)" style="opacity:0.5;fill:#231f20" id="path75" />
      <path inkscape:connector-curvature="0" d="m 378.48,359 h -19.31 l -26,57.73 a 30.22,30.22 0 0 1 7.76,20.56 c 0,20 -13,31.71 -32.66,34.69 l -0.35,0.77 h 20.72 l 8.95,-19.66 h 62.49 l 8.92,19.62 h 20.72 z m -33.88,77.9 13,-29.49 c 5.09,-11.41 11.24,-26.51 11.24,-26.51 0,0 6.32,15.27 11.23,26.51 l 13,29.49 z" transform="translate(-165.26,-358.96)" style="opacity:0.15;fill:#231f20" id="path77" />
   </g>
</svg>
