<svg xmlns="http://www.w3.org/2000/svg" viewBox="0 0 264.48 123.08"><polygon points="24.71 123.02 24.67 123.02 24.71 123.08 24.71 123.02" style="fill:#39b54a"/><path d="M263.39,402.49c0-24.05-17.38-43.53-50-43.53h-48.1V472.71h20.36V445.85h25.81a62.42,62.42,0,0,0,10.18-.88l19.83,27.74h23.7L240,439.36A40.37,40.37,0,0,0,263.39,402.49ZM214.24,428.3H185.62v-52h28.79c16.15,0,27.56,11.58,27.56,26.15C242,416.71,230.56,428.3,214.24,428.3Z" transform="translate(-165.26 -358.96)" style="fill:#231f20;opacity:0.75"/><path d="M318.27,408.11c6.32-3.16,11.94-11.41,11.94-20.36,0-20-15.27-28.79-34.06-28.79h-53V472.71h64.77l25.25-56A28.24,28.24,0,0,0,318.27,408.11Zm-54.76-31.6h30.71c9.83,0,14.75,5.27,14.75,13S303.88,402,295.1,402H263.51Zm32.82,78.64H263.51V419.34h34.75c13,0,21.42,6.32,21.42,18.26C319.68,449.36,310.55,455.15,296.33,455.15Z" transform="translate(-165.26 -358.96)" style="fill:#231f20;opacity:0.5"/><path d="M378.48,359H359.17l-26,57.73a30.22,30.22,0,0,1,7.76,20.56c0,20-13,31.71-32.66,34.69l-.35.77h20.72l8.95-19.66h62.49L409,472.71h20.72ZM344.6,436.9l13-29.49c5.09-11.41,11.24-26.51,11.24-26.51s6.32,15.27,11.23,26.51l13,29.49Z" transform="translate(-165.26 -358.96)" style="fill:#231f20;opacity:0.15"/></svg>