<?xml version="1.0" encoding="UTF-8" standalone="no"?>
<svg
   xmlns:dc="http://purl.org/dc/elements/1.1/"
   xmlns:cc="http://creativecommons.org/ns#"
   xmlns:rdf="http://www.w3.org/1999/02/22-rdf-syntax-ns#"
   xmlns:svg="http://www.w3.org/2000/svg"
   xmlns="http://www.w3.org/2000/svg"
   xmlns:sodipodi="http://sodipodi.sourceforge.net/DTD/sodipodi-0.dtd"
   xmlns:inkscape="http://www.inkscape.org/namespaces/inkscape"
   version="1.1"
   x="0px"
   y="0px"
   viewBox="0 0 28 28"
   xml:space="preserve"
   id="svg52"
   sodipodi:docname="contenful.svg"
   width="28"
   height="28"
   inkscape:version="1.0rc1 (09960d6, 2020-04-09)"><metadata
   id="metadata58"><rdf:RDF><cc:Work
       rdf:about=""><dc:format>image/svg+xml</dc:format><dc:type
         rdf:resource="http://purl.org/dc/dcmitype/StillImage" /><dc:title></dc:title></cc:Work></rdf:RDF></metadata><defs
   id="defs56" /><sodipodi:namedview
   units="px"
   inkscape:document-rotation="0"
   pagecolor="#ffffff"
   bordercolor="#666666"
   borderopacity="1"
   objecttolerance="10"
   gridtolerance="10"
   guidetolerance="10"
   inkscape:pageopacity="0"
   inkscape:pageshadow="2"
   inkscape:window-width="1920"
   inkscape:window-height="1116"
   id="namedview54"
   showgrid="false"
   fit-margin-top="0"
   fit-margin-left="0"
   fit-margin-right="0"
   fit-margin-bottom="0"
   viewbox-width="41"
   scale-x="1.05"
   inkscape:zoom="7.36"
   inkscape:cx="26.719867"
   inkscape:cy="15.356061"
   inkscape:window-x="0"
   inkscape:window-y="23"
   inkscape:window-maximized="1"
   inkscape:current-layer="g49" />
<style
   type="text/css"
   id="style10">
	.st0{fill:#FFFFFF;}
	.st1{fill:#FFD75F;}
	.st2{fill:#4FB5E1;}
	.st3{fill:#F05751;}
	.st4{fill:#0681B6;}
	.st5{fill:#CD4739;}
</style>

<g
   id="Mark_w_x2F_o_shadow__x28_wht_x29_"
   transform="translate(-274,-89.300001)">
	<g
   id="g49">
		
		<g
   id="g47"
   transform="matrix(0.12993039,0,0,0.12993039,263.36682,77.697217)">
			<path
   class="st1"
   d="m 159.1,239.7 v 0 c -10.9,-11 -17.7,-26 -17.7,-42.7 0,-16.7 6.8,-31.7 17.7,-42.7 v 0 c 9.3,-9.3 9.3,-24.3 0,-33.5 -9.3,-9.3 -24.3,-9.3 -33.6,0 C 106,140.4 94,167.3 94,197.1 c 0,29.8 12.1,56.7 31.6,76.2 9.3,9.3 24.3,9.3 33.6,0 9.2,-9.3 9.2,-24.3 -0.1,-33.6 0,0 0,0 0,0 z"
   id="path37"
   inkscape:connector-curvature="0" />
			<path
   class="st2"
   d="m 159.1,154.4 v 0 c 11,-10.9 26.1,-17.7 42.7,-17.7 16.7,0 31.8,6.8 42.7,17.7 v 0 c 9.3,9.3 24.3,9.3 33.6,0 9.3,-9.3 9.3,-24.3 0,-33.5 -19.5,-19.5 -46.5,-31.6 -76.3,-31.6 -29.8,0 -56.8,12.1 -76.3,31.6 -9.3,9.3 -9.3,24.3 0,33.5 9.3,9.3 24.4,9.3 33.6,0 0,0 0,0 0,0 z"
   id="path39"
   inkscape:connector-curvature="0" />
			<path
   class="st3"
   d="m 244.6,239.7 v 0 c -11,10.9 -26.1,17.7 -42.7,17.7 -16.7,0 -31.8,-6.8 -42.7,-17.7 v 0 c -9.3,-9.3 -24.3,-9.3 -33.6,0 -9.3,9.3 -9.3,24.3 0,33.5 19.5,19.5 46.5,31.6 76.3,31.6 29.8,0 56.8,-12.1 76.3,-31.6 9.3,-9.3 9.3,-24.3 0,-33.5 -9.3,-9.2 -24.3,-9.2 -33.6,0 0,0 0,0 0,0 z"
   id="path41"
   inkscape:connector-curvature="0" />
			<path
   class="st4"
   d="m 159.1,154.4 c -9.3,9.3 -24.3,9.3 -33.6,0 -9.3,-9.3 -9.3,-24.3 0,-33.5 9.3,-9.3 24.3,-9.3 33.6,0 9.3,9.2 9.3,24.2 0,33.5 z"
   id="path43"
   inkscape:connector-curvature="0" />
			<path
   class="st5"
   d="m 159.1,273.3 c -9.3,9.3 -24.3,9.3 -33.6,0 -9.3,-9.2 -9.3,-24.3 0,-33.5 9.3,-9.3 24.3,-9.3 33.6,0 9.3,9.2 9.3,24.2 0,33.5 z"
   id="path45"
   inkscape:connector-curvature="0" />
		</g>
	</g>
</g>
</svg>
